<svg xmlns="http://www.w3.org/2000/svg" version="1.1" xmlns:xlink="http://www.w3.org/1999/xlink" xmlns:svgjs="http://svgjs.dev/svgjs" viewBox="0 0 800 800"><g stroke-width="3" stroke="#567189" fill="none" stroke-linecap="butt"><line x1="0" y1="0" x2="44" y2="44" opacity="0.05"></line><line x1="88" y1="0" x2="44" y2="44" opacity="0.05"></line><line x1="132" y1="0" x2="88" y2="44" opacity="0.05"></line><line x1="176" y1="0" x2="132" y2="44" opacity="0.05"></line><line x1="176" y1="0" x2="220" y2="44" opacity="0.05"></line><line x1="220" y1="0" x2="264" y2="44" opacity="0.05"></line><line x1="308" y1="0" x2="264" y2="44" opacity="0.05"></line><line x1="308" y1="0" x2="352" y2="44" opacity="0.05"></line><line x1="352" y1="0" x2="396" y2="44" opacity="0.05"></line><line x1="396" y1="0" x2="440" y2="44" opacity="0.05"></line><line x1="484" y1="0" x2="440" y2="44" opacity="0.05"></line><line x1="528" y1="0" x2="484" y2="44" opacity="0.05"></line><line x1="528" y1="0" x2="572" y2="44" opacity="0.05"></line><line x1="616" y1="0" x2="572" y2="44" opacity="0.05"></line><line x1="616" y1="0" x2="660" y2="44" opacity="0.05"></line><line x1="660" y1="0" x2="704" y2="44" opacity="0.05"></line><line x1="704" y1="0" x2="748" y2="44" opacity="0.05"></line><line x1="792" y1="0" x2="748" y2="44" opacity="0.05"></line><line x1="792" y1="0" x2="836" y2="44" opacity="0.05"></line><line x1="44" y1="44" x2="0" y2="88" opacity="0.10"></line><line x1="44" y1="44" x2="88" y2="88" opacity="0.10"></line><line x1="88" y1="44" x2="132" y2="88" opacity="0.10"></line><line x1="176" y1="44" x2="132" y2="88" opacity="0.10"></line><line x1="220" y1="44" x2="176" y2="88" opacity="0.10"></line><line x1="220" y1="44" x2="264" y2="88" opacity="0.10"></line><line x1="308" y1="44" x2="264" y2="88" opacity="0.10"></line><line x1="308" y1="44" x2="352" y2="88" opacity="0.10"></line><line x1="396" y1="44" x2="352" y2="88" opacity="0.10"></line><line x1="396" y1="44" x2="440" y2="88" opacity="0.10"></line><line x1="440" y1="44" x2="484" y2="88" opacity="0.10"></line><line x1="528" y1="44" x2="484" y2="88" opacity="0.10"></line><line x1="572" y1="44" x2="528" y2="88" opacity="0.10"></line><line x1="616" y1="44" x2="572" y2="88" opacity="0.10"></line><line x1="616" y1="44" x2="660" y2="88" opacity="0.10"></line><line x1="660" y1="44" x2="704" y2="88" opacity="0.10"></line><line x1="704" y1="44" x2="748" y2="88" opacity="0.10"></line><line x1="748" y1="44" x2="792" y2="88" opacity="0.10"></line><line x1="836" y1="44" x2="792" y2="88" opacity="0.10"></line><line x1="0" y1="88" x2="44" y2="132" opacity="0.15"></line><line x1="88" y1="88" x2="44" y2="132" opacity="0.15"></line><line x1="88" y1="88" x2="132" y2="132" opacity="0.15"></line><line x1="176" y1="88" x2="132" y2="132" opacity="0.15"></line><line x1="220" y1="88" x2="176" y2="132" opacity="0.15"></line><line x1="220" y1="88" x2="264" y2="132" opacity="0.15"></line><line x1="308" y1="88" x2="264" y2="132" opacity="0.15"></line><line x1="352" y1="88" x2="308" y2="132" opacity="0.15"></line><line x1="352" y1="88" x2="396" y2="132" opacity="0.15"></line><line x1="396" y1="88" x2="440" y2="132" opacity="0.15"></line><line x1="440" y1="88" x2="484" y2="132" opacity="0.15"></line><line x1="528" y1="88" x2="484" y2="132" opacity="0.15"></line><line x1="528" y1="88" x2="572" y2="132" opacity="0.15"></line><line x1="616" y1="88" x2="572" y2="132" opacity="0.15"></line><line x1="616" y1="88" x2="660" y2="132" opacity="0.15"></line><line x1="660" y1="88" x2="704" y2="132" opacity="0.15"></line><line x1="704" y1="88" x2="748" y2="132" opacity="0.15"></line><line x1="792" y1="88" x2="748" y2="132" opacity="0.15"></line><line x1="836" y1="88" x2="792" y2="132" opacity="0.15"></line><line x1="0" y1="132" x2="44" y2="176" opacity="0.21"></line><line x1="44" y1="132" x2="88" y2="176" opacity="0.21"></line><line x1="132" y1="132" x2="88" y2="176" opacity="0.21"></line><line x1="176" y1="132" x2="132" y2="176" opacity="0.21"></line><line x1="220" y1="132" x2="176" y2="176" opacity="0.21"></line><line x1="220" y1="132" x2="264" y2="176" opacity="0.21"></line><line x1="308" y1="132" x2="264" y2="176" opacity="0.21"></line><line x1="308" y1="132" x2="352" y2="176" opacity="0.21"></line><line x1="352" y1="132" x2="396" y2="176" opacity="0.21"></line><line x1="396" y1="132" x2="440" y2="176" opacity="0.21"></line><line x1="440" y1="132" x2="484" y2="176" opacity="0.21"></line><line x1="528" y1="132" x2="484" y2="176" opacity="0.21"></line><line x1="572" y1="132" x2="528" y2="176" opacity="0.21"></line><line x1="572" y1="132" x2="616" y2="176" opacity="0.21"></line><line x1="660" y1="132" x2="616" y2="176" opacity="0.21"></line><line x1="704" y1="132" x2="660" y2="176" opacity="0.21"></line><line x1="704" y1="132" x2="748" y2="176" opacity="0.21"></line><line x1="748" y1="132" x2="792" y2="176" opacity="0.21"></line><line x1="836" y1="132" x2="792" y2="176" opacity="0.21"></line><line x1="44" y1="176" x2="0" y2="220" opacity="0.26"></line><line x1="44" y1="176" x2="88" y2="220" opacity="0.26"></line><line x1="132" y1="176" x2="88" y2="220" opacity="0.26"></line><line x1="132" y1="176" x2="176" y2="220" opacity="0.26"></line><line x1="220" y1="176" x2="176" y2="220" opacity="0.26"></line><line x1="220" y1="176" x2="264" y2="220" opacity="0.26"></line><line x1="308" y1="176" x2="264" y2="220" opacity="0.26"></line><line x1="308" y1="176" x2="352" y2="220" opacity="0.26"></line><line x1="352" y1="176" x2="396" y2="220" opacity="0.26"></line><line x1="440" y1="176" x2="396" y2="220" opacity="0.26"></line><line x1="484" y1="176" x2="440" y2="220" opacity="0.26"></line><line x1="484" y1="176" x2="528" y2="220" opacity="0.26"></line><line x1="572" y1="176" x2="528" y2="220" opacity="0.26"></line><line x1="572" y1="176" x2="616" y2="220" opacity="0.26"></line><line x1="616" y1="176" x2="660" y2="220" opacity="0.26"></line><line x1="704" y1="176" x2="660" y2="220" opacity="0.26"></line><line x1="748" y1="176" x2="704" y2="220" opacity="0.26"></line><line x1="748" y1="176" x2="792" y2="220" opacity="0.26"></line><line x1="792" y1="176" x2="836" y2="220" opacity="0.26"></line><line x1="0" y1="220" x2="44" y2="264" opacity="0.31"></line><line x1="44" y1="220" x2="88" y2="264" opacity="0.31"></line><line x1="88" y1="220" x2="132" y2="264" opacity="0.31"></line><line x1="132" y1="220" x2="176" y2="264" opacity="0.31"></line><line x1="176" y1="220" x2="220" y2="264" opacity="0.31"></line><line x1="220" y1="220" x2="264" y2="264" opacity="0.31"></line><line x1="264" y1="220" x2="308" y2="264" opacity="0.31"></line><line x1="308" y1="220" x2="352" y2="264" opacity="0.31"></line><line x1="396" y1="220" x2="352" y2="264" opacity="0.31"></line><line x1="396" y1="220" x2="440" y2="264" opacity="0.31"></line><line x1="484" y1="220" x2="440" y2="264" opacity="0.31"></line><line x1="484" y1="220" x2="528" y2="264" opacity="0.31"></line><line x1="572" y1="220" x2="528" y2="264" opacity="0.31"></line><line x1="616" y1="220" x2="572" y2="264" opacity="0.31"></line><line x1="660" y1="220" x2="616" y2="264" opacity="0.31"></line><line x1="660" y1="220" x2="704" y2="264" opacity="0.31"></line><line x1="748" y1="220" x2="704" y2="264" opacity="0.31"></line><line x1="792" y1="220" x2="748" y2="264" opacity="0.31"></line><line x1="792" y1="220" x2="836" y2="264" opacity="0.31"></line><line x1="0" y1="264" x2="44" y2="308" opacity="0.36"></line><line x1="44" y1="264" x2="88" y2="308" opacity="0.36"></line><line x1="132" y1="264" x2="88" y2="308" opacity="0.36"></line><line x1="176" y1="264" x2="132" y2="308" opacity="0.36"></line><line x1="220" y1="264" x2="176" y2="308" opacity="0.36"></line><line x1="220" y1="264" x2="264" y2="308" opacity="0.36"></line><line x1="264" y1="264" x2="308" y2="308" opacity="0.36"></line><line x1="308" y1="264" x2="352" y2="308" opacity="0.36"></line><line x1="396" y1="264" x2="352" y2="308" opacity="0.36"></line><line x1="396" y1="264" x2="440" y2="308" opacity="0.36"></line><line x1="484" y1="264" x2="440" y2="308" opacity="0.36"></line><line x1="528" y1="264" x2="484" y2="308" opacity="0.36"></line><line x1="572" y1="264" x2="528" y2="308" opacity="0.36"></line><line x1="616" y1="264" x2="572" y2="308" opacity="0.36"></line><line x1="616" y1="264" x2="660" y2="308" opacity="0.36"></line><line x1="660" y1="264" x2="704" y2="308" opacity="0.36"></line><line x1="704" y1="264" x2="748" y2="308" opacity="0.36"></line><line x1="792" y1="264" x2="748" y2="308" opacity="0.36"></line><line x1="836" y1="264" x2="792" y2="308" opacity="0.36"></line><line x1="44" y1="308" x2="0" y2="352" opacity="0.42"></line><line x1="44" y1="308" x2="88" y2="352" opacity="0.42"></line><line x1="132" y1="308" x2="88" y2="352" opacity="0.42"></line><line x1="176" y1="308" x2="132" y2="352" opacity="0.42"></line><line x1="176" y1="308" x2="220" y2="352" opacity="0.42"></line><line x1="220" y1="308" x2="264" y2="352" opacity="0.42"></line><line x1="264" y1="308" x2="308" y2="352" opacity="0.42"></line><line x1="352" y1="308" x2="308" y2="352" opacity="0.42"></line><line x1="352" y1="308" x2="396" y2="352" opacity="0.42"></line><line x1="396" y1="308" x2="440" y2="352" opacity="0.42"></line><line x1="440" y1="308" x2="484" y2="352" opacity="0.42"></line><line x1="484" y1="308" x2="528" y2="352" opacity="0.42"></line><line x1="572" y1="308" x2="528" y2="352" opacity="0.42"></line><line x1="616" y1="308" x2="572" y2="352" opacity="0.42"></line><line x1="616" y1="308" x2="660" y2="352" opacity="0.42"></line><line x1="660" y1="308" x2="704" y2="352" opacity="0.42"></line><line x1="748" y1="308" x2="704" y2="352" opacity="0.42"></line><line x1="792" y1="308" x2="748" y2="352" opacity="0.42"></line><line x1="792" y1="308" x2="836" y2="352" opacity="0.42"></line><line x1="0" y1="352" x2="44" y2="396" opacity="0.47"></line><line x1="44" y1="352" x2="88" y2="396" opacity="0.47"></line><line x1="88" y1="352" x2="132" y2="396" opacity="0.47"></line><line x1="176" y1="352" x2="132" y2="396" opacity="0.47"></line><line x1="176" y1="352" x2="220" y2="396" opacity="0.47"></line><line x1="220" y1="352" x2="264" y2="396" opacity="0.47"></line><line x1="308" y1="352" x2="264" y2="396" opacity="0.47"></line><line x1="308" y1="352" x2="352" y2="396" opacity="0.47"></line><line x1="352" y1="352" x2="396" y2="396" opacity="0.47"></line><line x1="440" y1="352" x2="396" y2="396" opacity="0.47"></line><line x1="484" y1="352" x2="440" y2="396" opacity="0.47"></line><line x1="484" y1="352" x2="528" y2="396" opacity="0.47"></line><line x1="572" y1="352" x2="528" y2="396" opacity="0.47"></line><line x1="616" y1="352" x2="572" y2="396" opacity="0.47"></line><line x1="616" y1="352" x2="660" y2="396" opacity="0.47"></line><line x1="660" y1="352" x2="704" y2="396" opacity="0.47"></line><line x1="748" y1="352" x2="704" y2="396" opacity="0.47"></line><line x1="792" y1="352" x2="748" y2="396" opacity="0.47"></line><line x1="792" y1="352" x2="836" y2="396" opacity="0.47"></line><line x1="44" y1="396" x2="0" y2="440" opacity="0.52"></line><line x1="88" y1="396" x2="44" y2="440" opacity="0.52"></line><line x1="132" y1="396" x2="88" y2="440" opacity="0.52"></line><line x1="132" y1="396" x2="176" y2="440" opacity="0.52"></line><line x1="176" y1="396" x2="220" y2="440" opacity="0.52"></line><line x1="220" y1="396" x2="264" y2="440" opacity="0.52"></line><line x1="308" y1="396" x2="264" y2="440" opacity="0.52"></line><line x1="352" y1="396" x2="308" y2="440" opacity="0.52"></line><line x1="352" y1="396" x2="396" y2="440" opacity="0.52"></line><line x1="396" y1="396" x2="440" y2="440" opacity="0.52"></line><line x1="440" y1="396" x2="484" y2="440" opacity="0.52"></line><line x1="528" y1="396" x2="484" y2="440" opacity="0.52"></line><line x1="572" y1="396" x2="528" y2="440" opacity="0.52"></line><line x1="616" y1="396" x2="572" y2="440" opacity="0.52"></line><line x1="660" y1="396" x2="616" y2="440" opacity="0.52"></line><line x1="704" y1="396" x2="660" y2="440" opacity="0.52"></line><line x1="748" y1="396" x2="704" y2="440" opacity="0.52"></line><line x1="748" y1="396" x2="792" y2="440" opacity="0.52"></line><line x1="836" y1="396" x2="792" y2="440" opacity="0.52"></line><line x1="44" y1="440" x2="0" y2="484" opacity="0.57"></line><line x1="88" y1="440" x2="44" y2="484" opacity="0.57"></line><line x1="88" y1="440" x2="132" y2="484" opacity="0.57"></line><line x1="132" y1="440" x2="176" y2="484" opacity="0.57"></line><line x1="176" y1="440" x2="220" y2="484" opacity="0.57"></line><line x1="220" y1="440" x2="264" y2="484" opacity="0.57"></line><line x1="308" y1="440" x2="264" y2="484" opacity="0.57"></line><line x1="308" y1="440" x2="352" y2="484" opacity="0.57"></line><line x1="352" y1="440" x2="396" y2="484" opacity="0.57"></line><line x1="440" y1="440" x2="396" y2="484" opacity="0.57"></line><line x1="440" y1="440" x2="484" y2="484" opacity="0.57"></line><line x1="528" y1="440" x2="484" y2="484" opacity="0.57"></line><line x1="528" y1="440" x2="572" y2="484" opacity="0.57"></line><line x1="572" y1="440" x2="616" y2="484" opacity="0.57"></line><line x1="660" y1="440" x2="616" y2="484" opacity="0.57"></line><line x1="660" y1="440" x2="704" y2="484" opacity="0.57"></line><line x1="748" y1="440" x2="704" y2="484" opacity="0.57"></line><line x1="792" y1="440" x2="748" y2="484" opacity="0.57"></line><line x1="836" y1="440" x2="792" y2="484" opacity="0.57"></line><line x1="0" y1="484" x2="44" y2="528" opacity="0.62"></line><line x1="44" y1="484" x2="88" y2="528" opacity="0.62"></line><line x1="88" y1="484" x2="132" y2="528" opacity="0.62"></line><line x1="176" y1="484" x2="132" y2="528" opacity="0.62"></line><line x1="176" y1="484" x2="220" y2="528" opacity="0.62"></line><line x1="264" y1="484" x2="220" y2="528" opacity="0.62"></line><line x1="264" y1="484" x2="308" y2="528" opacity="0.62"></line><line x1="308" y1="484" x2="352" y2="528" opacity="0.62"></line><line x1="352" y1="484" x2="396" y2="528" opacity="0.62"></line><line x1="396" y1="484" x2="440" y2="528" opacity="0.62"></line><line x1="484" y1="484" x2="440" y2="528" opacity="0.62"></line><line x1="484" y1="484" x2="528" y2="528" opacity="0.62"></line><line x1="572" y1="484" x2="528" y2="528" opacity="0.62"></line><line x1="616" y1="484" x2="572" y2="528" opacity="0.62"></line><line x1="616" y1="484" x2="660" y2="528" opacity="0.62"></line><line x1="704" y1="484" x2="660" y2="528" opacity="0.62"></line><line x1="704" y1="484" x2="748" y2="528" opacity="0.62"></line><line x1="792" y1="484" x2="748" y2="528" opacity="0.62"></line><line x1="836" y1="484" x2="792" y2="528" opacity="0.62"></line><line x1="44" y1="528" x2="0" y2="572" opacity="0.68"></line><line x1="44" y1="528" x2="88" y2="572" opacity="0.68"></line><line x1="88" y1="528" x2="132" y2="572" opacity="0.68"></line><line x1="176" y1="528" x2="132" y2="572" opacity="0.68"></line><line x1="176" y1="528" x2="220" y2="572" opacity="0.68"></line><line x1="220" y1="528" x2="264" y2="572" opacity="0.68"></line><line x1="308" y1="528" x2="264" y2="572" opacity="0.68"></line><line x1="352" y1="528" x2="308" y2="572" opacity="0.68"></line><line x1="396" y1="528" x2="352" y2="572" opacity="0.68"></line><line x1="440" y1="528" x2="396" y2="572" opacity="0.68"></line><line x1="484" y1="528" x2="440" y2="572" opacity="0.68"></line><line x1="484" y1="528" x2="528" y2="572" opacity="0.68"></line><line x1="572" y1="528" x2="528" y2="572" opacity="0.68"></line><line x1="572" y1="528" x2="616" y2="572" opacity="0.68"></line><line x1="616" y1="528" x2="660" y2="572" opacity="0.68"></line><line x1="704" y1="528" x2="660" y2="572" opacity="0.68"></line><line x1="704" y1="528" x2="748" y2="572" opacity="0.68"></line><line x1="748" y1="528" x2="792" y2="572" opacity="0.68"></line><line x1="836" y1="528" x2="792" y2="572" opacity="0.68"></line><line x1="0" y1="572" x2="44" y2="616" opacity="0.73"></line><line x1="44" y1="572" x2="88" y2="616" opacity="0.73"></line><line x1="88" y1="572" x2="132" y2="616" opacity="0.73"></line><line x1="132" y1="572" x2="176" y2="616" opacity="0.73"></line><line x1="176" y1="572" x2="220" y2="616" opacity="0.73"></line><line x1="220" y1="572" x2="264" y2="616" opacity="0.73"></line><line x1="264" y1="572" x2="308" y2="616" opacity="0.73"></line><line x1="308" y1="572" x2="352" y2="616" opacity="0.73"></line><line x1="396" y1="572" x2="352" y2="616" opacity="0.73"></line><line x1="396" y1="572" x2="440" y2="616" opacity="0.73"></line><line x1="440" y1="572" x2="484" y2="616" opacity="0.73"></line><line x1="484" y1="572" x2="528" y2="616" opacity="0.73"></line><line x1="528" y1="572" x2="572" y2="616" opacity="0.73"></line><line x1="572" y1="572" x2="616" y2="616" opacity="0.73"></line><line x1="616" y1="572" x2="660" y2="616" opacity="0.73"></line><line x1="660" y1="572" x2="704" y2="616" opacity="0.73"></line><line x1="748" y1="572" x2="704" y2="616" opacity="0.73"></line><line x1="792" y1="572" x2="748" y2="616" opacity="0.73"></line><line x1="836" y1="572" x2="792" y2="616" opacity="0.73"></line><line x1="44" y1="616" x2="0" y2="660" opacity="0.78"></line><line x1="88" y1="616" x2="44" y2="660" opacity="0.78"></line><line x1="132" y1="616" x2="88" y2="660" opacity="0.78"></line><line x1="176" y1="616" x2="132" y2="660" opacity="0.78"></line><line x1="220" y1="616" x2="176" y2="660" opacity="0.78"></line><line x1="220" y1="616" x2="264" y2="660" opacity="0.78"></line><line x1="308" y1="616" x2="264" y2="660" opacity="0.78"></line><line x1="352" y1="616" x2="308" y2="660" opacity="0.78"></line><line x1="352" y1="616" x2="396" y2="660" opacity="0.78"></line><line x1="396" y1="616" x2="440" y2="660" opacity="0.78"></line><line x1="440" y1="616" x2="484" y2="660" opacity="0.78"></line><line x1="484" y1="616" x2="528" y2="660" opacity="0.78"></line><line x1="528" y1="616" x2="572" y2="660" opacity="0.78"></line><line x1="572" y1="616" x2="616" y2="660" opacity="0.78"></line><line x1="660" y1="616" x2="616" y2="660" opacity="0.78"></line><line x1="704" y1="616" x2="660" y2="660" opacity="0.78"></line><line x1="748" y1="616" x2="704" y2="660" opacity="0.78"></line><line x1="792" y1="616" x2="748" y2="660" opacity="0.78"></line><line x1="792" y1="616" x2="836" y2="660" opacity="0.78"></line><line x1="0" y1="660" x2="44" y2="704" opacity="0.83"></line><line x1="88" y1="660" x2="44" y2="704" opacity="0.83"></line><line x1="132" y1="660" x2="88" y2="704" opacity="0.83"></line><line x1="132" y1="660" x2="176" y2="704" opacity="0.83"></line><line x1="176" y1="660" x2="220" y2="704" opacity="0.83"></line><line x1="264" y1="660" x2="220" y2="704" opacity="0.83"></line><line x1="308" y1="660" x2="264" y2="704" opacity="0.83"></line><line x1="308" y1="660" x2="352" y2="704" opacity="0.83"></line><line x1="352" y1="660" x2="396" y2="704" opacity="0.83"></line><line x1="440" y1="660" x2="396" y2="704" opacity="0.83"></line><line x1="440" y1="660" x2="484" y2="704" opacity="0.83"></line><line x1="484" y1="660" x2="528" y2="704" opacity="0.83"></line><line x1="528" y1="660" x2="572" y2="704" opacity="0.83"></line><line x1="616" y1="660" x2="572" y2="704" opacity="0.83"></line><line x1="616" y1="660" x2="660" y2="704" opacity="0.83"></line><line x1="660" y1="660" x2="704" y2="704" opacity="0.83"></line><line x1="748" y1="660" x2="704" y2="704" opacity="0.83"></line><line x1="792" y1="660" x2="748" y2="704" opacity="0.83"></line><line x1="792" y1="660" x2="836" y2="704" opacity="0.83"></line><line x1="44" y1="704" x2="0" y2="748" opacity="0.89"></line><line x1="88" y1="704" x2="44" y2="748" opacity="0.89"></line><line x1="88" y1="704" x2="132" y2="748" opacity="0.89"></line><line x1="132" y1="704" x2="176" y2="748" opacity="0.89"></line><line x1="176" y1="704" x2="220" y2="748" opacity="0.89"></line><line x1="220" y1="704" x2="264" y2="748" opacity="0.89"></line><line x1="308" y1="704" x2="264" y2="748" opacity="0.89"></line><line x1="352" y1="704" x2="308" y2="748" opacity="0.89"></line><line x1="396" y1="704" x2="352" y2="748" opacity="0.89"></line><line x1="440" y1="704" x2="396" y2="748" opacity="0.89"></line><line x1="440" y1="704" x2="484" y2="748" opacity="0.89"></line><line x1="528" y1="704" x2="484" y2="748" opacity="0.89"></line><line x1="572" y1="704" x2="528" y2="748" opacity="0.89"></line><line x1="616" y1="704" x2="572" y2="748" opacity="0.89"></line><line x1="616" y1="704" x2="660" y2="748" opacity="0.89"></line><line x1="660" y1="704" x2="704" y2="748" opacity="0.89"></line><line x1="704" y1="704" x2="748" y2="748" opacity="0.89"></line><line x1="748" y1="704" x2="792" y2="748" opacity="0.89"></line><line x1="792" y1="704" x2="836" y2="748" opacity="0.89"></line><line x1="44" y1="748" x2="0" y2="792" opacity="0.94"></line><line x1="44" y1="748" x2="88" y2="792" opacity="0.94"></line><line x1="88" y1="748" x2="132" y2="792" opacity="0.94"></line><line x1="132" y1="748" x2="176" y2="792" opacity="0.94"></line><line x1="220" y1="748" x2="176" y2="792" opacity="0.94"></line><line x1="264" y1="748" x2="220" y2="792" opacity="0.94"></line><line x1="308" y1="748" x2="264" y2="792" opacity="0.94"></line><line x1="308" y1="748" x2="352" y2="792" opacity="0.94"></line><line x1="352" y1="748" x2="396" y2="792" opacity="0.94"></line><line x1="440" y1="748" x2="396" y2="792" opacity="0.94"></line><line x1="440" y1="748" x2="484" y2="792" opacity="0.94"></line><line x1="528" y1="748" x2="484" y2="792" opacity="0.94"></line><line x1="528" y1="748" x2="572" y2="792" opacity="0.94"></line><line x1="616" y1="748" x2="572" y2="792" opacity="0.94"></line><line x1="660" y1="748" x2="616" y2="792" opacity="0.94"></line><line x1="660" y1="748" x2="704" y2="792" opacity="0.94"></line><line x1="748" y1="748" x2="704" y2="792" opacity="0.94"></line><line x1="792" y1="748" x2="748" y2="792" opacity="0.94"></line><line x1="836" y1="748" x2="792" y2="792" opacity="0.94"></line><line x1="0" y1="792" x2="44" y2="836" opacity="0.99"></line><line x1="44" y1="792" x2="88" y2="836" opacity="0.99"></line><line x1="88" y1="792" x2="132" y2="836" opacity="0.99"></line><line x1="132" y1="792" x2="176" y2="836" opacity="0.99"></line><line x1="176" y1="792" x2="220" y2="836" opacity="0.99"></line><line x1="264" y1="792" x2="220" y2="836" opacity="0.99"></line><line x1="264" y1="792" x2="308" y2="836" opacity="0.99"></line><line x1="308" y1="792" x2="352" y2="836" opacity="0.99"></line><line x1="352" y1="792" x2="396" y2="836" opacity="0.99"></line><line x1="440" y1="792" x2="396" y2="836" opacity="0.99"></line><line x1="440" y1="792" x2="484" y2="836" opacity="0.99"></line><line x1="484" y1="792" x2="528" y2="836" opacity="0.99"></line><line x1="528" y1="792" x2="572" y2="836" opacity="0.99"></line><line x1="572" y1="792" x2="616" y2="836" opacity="0.99"></line><line x1="660" y1="792" x2="616" y2="836" opacity="0.99"></line><line x1="660" y1="792" x2="704" y2="836" opacity="0.99"></line><line x1="748" y1="792" x2="704" y2="836" opacity="0.99"></line><line x1="792" y1="792" x2="748" y2="836" opacity="0.99"></line><line x1="792" y1="792" x2="836" y2="836" opacity="0.99"></line></g></svg>